<svg width="1971" height="2011" viewBox="0 0 1971 2011" fill="none" xmlns="http://www.w3.org/2000/svg">
<g opacity="0.4" clip-path="url(#clip0_2503_327)">
<path d="M1842.09 1324C1770.73 1324 1713 1381.73 1713 1453.09C1713 1524.27 1770.73 1582.18 1842.09 1582.18C1913.27 1582.18 1971.18 1524.45 1971.18 1453.09C1971 1381.73 1913.27 1324 1842.09 1324ZM1842.09 1573.85C1775.33 1573.85 1721.32 1519.85 1721.32 1453.09C1721.32 1386.33 1775.33 1332.32 1842.09 1332.32C1908.85 1332.32 1962.85 1386.33 1962.85 1453.09C1962.85 1519.67 1908.67 1573.85 1842.09 1573.85Z" fill="white"/>
<path d="M1842.09 1351.8C1786.31 1351.8 1740.98 1397.13 1740.98 1452.91C1740.98 1508.69 1786.31 1554.02 1842.09 1554.02C1897.87 1554.02 1943.2 1508.87 1943.2 1453.09C1943.2 1397.13 1897.87 1351.8 1842.09 1351.8ZM1842.09 1538.62C1794.81 1538.62 1756.38 1500.19 1756.38 1452.91C1756.38 1405.63 1794.81 1367.21 1842.09 1367.21C1889.37 1367.21 1927.79 1405.63 1927.79 1452.91C1927.79 1500.19 1889.37 1538.62 1842.09 1538.62Z" fill="white"/>
</g>
<g clip-path="url(#clip1_2503_327)">
<path d="M272.08 1314.86C272.08 1316.02 271.206 1316.9 270.04 1316.9C268.874 1316.9 268 1316.02 268 1314.86C268 1313.7 268.874 1312.82 270.04 1312.82C271.206 1312.82 272.08 1313.79 272.08 1314.86Z" fill="white"/>
<path d="M289.469 1314.86C289.469 1316.02 288.595 1316.9 287.429 1316.9C286.263 1316.9 285.389 1316.02 285.389 1314.86C285.389 1313.7 286.263 1312.82 287.429 1312.82C288.498 1312.82 289.469 1313.79 289.469 1314.86Z" fill="white"/>
<path d="M306.762 1314.86C306.762 1316.02 305.887 1316.9 304.722 1316.9C303.556 1316.9 302.682 1316.02 302.682 1314.86C302.682 1313.7 303.556 1312.82 304.722 1312.82C305.887 1312.82 306.762 1313.79 306.762 1314.86Z" fill="white"/>
<path d="M324.151 1314.86C324.151 1316.02 323.277 1316.9 322.111 1316.9C320.945 1316.9 320.071 1316.02 320.071 1314.86C320.071 1313.7 320.945 1312.82 322.111 1312.82C323.277 1312.82 324.151 1313.79 324.151 1314.86Z" fill="white"/>
<path d="M341.54 1314.86C341.54 1316.02 340.666 1316.9 339.5 1316.9C338.334 1316.9 337.46 1316.02 337.46 1314.86C337.46 1313.7 338.334 1312.82 339.5 1312.82C340.569 1312.82 341.54 1313.79 341.54 1314.86Z" fill="white"/>
<path d="M358.929 1314.86C358.929 1316.02 358.055 1316.9 356.889 1316.9C355.723 1316.9 354.849 1316.02 354.849 1314.86C354.849 1313.7 355.723 1312.82 356.889 1312.82C358.055 1312.82 358.929 1313.79 358.929 1314.86Z" fill="white"/>
<path d="M376.222 1314.86C376.222 1316.02 375.347 1316.9 374.182 1316.9C373.016 1316.9 372.142 1316.02 372.142 1314.86C372.142 1313.7 373.016 1312.82 374.182 1312.82C375.347 1312.82 376.222 1313.79 376.222 1314.86Z" fill="white"/>
<path d="M393.611 1314.86C393.611 1316.02 392.737 1316.9 391.571 1316.9C390.405 1316.9 389.531 1316.02 389.531 1314.86C389.531 1313.7 390.405 1312.82 391.571 1312.82C392.737 1312.82 393.611 1313.79 393.611 1314.86Z" fill="white"/>
<path d="M411 1314.86C411 1316.02 410.126 1316.9 408.96 1316.9C407.794 1316.9 406.92 1316.02 406.92 1314.86C406.92 1313.7 407.794 1312.82 408.96 1312.82C410.029 1312.82 411 1313.79 411 1314.86Z" fill="white"/>
<path d="M272.08 1329.32C272.08 1330.48 271.206 1331.36 270.04 1331.36C268.874 1331.36 268 1330.48 268 1329.32C268 1328.15 268.874 1327.28 270.04 1327.28C271.206 1327.28 272.08 1328.15 272.08 1329.32Z" fill="white"/>
<path d="M289.469 1329.32C289.469 1330.48 288.595 1331.36 287.429 1331.36C286.263 1331.36 285.389 1330.48 285.389 1329.32C285.389 1328.15 286.263 1327.28 287.429 1327.28C288.498 1327.28 289.469 1328.15 289.469 1329.32Z" fill="white"/>
<path d="M306.762 1329.32C306.762 1330.48 305.887 1331.36 304.722 1331.36C303.556 1331.36 302.682 1330.48 302.682 1329.32C302.682 1328.15 303.556 1327.28 304.722 1327.28C305.887 1327.28 306.762 1328.15 306.762 1329.32Z" fill="white"/>
<path d="M324.151 1329.32C324.151 1330.48 323.277 1331.36 322.111 1331.36C320.945 1331.36 320.071 1330.48 320.071 1329.32C320.071 1328.15 320.945 1327.28 322.111 1327.28C323.277 1327.28 324.151 1328.15 324.151 1329.32Z" fill="white"/>
<path d="M341.54 1329.32C341.54 1330.48 340.666 1331.36 339.5 1331.36C338.334 1331.36 337.46 1330.48 337.46 1329.32C337.46 1328.15 338.334 1327.28 339.5 1327.28C340.569 1327.28 341.54 1328.15 341.54 1329.32Z" fill="white"/>
<path d="M358.929 1329.32C358.929 1330.48 358.055 1331.36 356.889 1331.36C355.723 1331.36 354.849 1330.48 354.849 1329.32C354.849 1328.15 355.723 1327.28 356.889 1327.28C358.055 1327.28 358.929 1328.15 358.929 1329.32Z" fill="white"/>
<path d="M376.222 1329.32C376.222 1330.48 375.347 1331.36 374.182 1331.36C373.016 1331.36 372.142 1330.48 372.142 1329.32C372.142 1328.15 373.016 1327.28 374.182 1327.28C375.347 1327.28 376.222 1328.15 376.222 1329.32Z" fill="white"/>
<path d="M393.611 1329.32C393.611 1330.48 392.737 1331.36 391.571 1331.36C390.405 1331.36 389.531 1330.48 389.531 1329.32C389.531 1328.15 390.405 1327.28 391.571 1327.28C392.737 1327.28 393.611 1328.15 393.611 1329.32Z" fill="white"/>
<path d="M411 1329.32C411 1330.48 410.126 1331.36 408.96 1331.36C407.794 1331.36 406.92 1330.48 406.92 1329.32C406.92 1328.15 407.794 1327.28 408.96 1327.28C410.029 1327.28 411 1328.15 411 1329.32Z" fill="white"/>
<path d="M272.08 1286.04C272.08 1287.2 271.206 1288.08 270.04 1288.08C268.874 1288.08 268 1287.2 268 1286.04C268 1284.87 268.874 1284 270.04 1284C271.206 1284 272.08 1284.87 272.08 1286.04Z" fill="white"/>
<path d="M289.469 1286.04C289.469 1287.2 288.595 1288.08 287.429 1288.08C286.263 1288.08 285.389 1287.2 285.389 1286.04C285.389 1284.87 286.263 1284 287.429 1284C288.498 1284 289.469 1284.87 289.469 1286.04Z" fill="white"/>
<path d="M306.762 1286.04C306.762 1287.2 305.887 1288.08 304.722 1288.08C303.556 1288.08 302.682 1287.2 302.682 1286.04C302.682 1284.87 303.653 1284 304.722 1284C305.887 1284 306.762 1284.87 306.762 1286.04Z" fill="white"/>
<path d="M324.151 1286.04C324.151 1287.2 323.277 1288.08 322.111 1288.08C320.945 1288.08 320.071 1287.2 320.071 1286.04C320.071 1284.87 321.042 1284 322.111 1284C323.179 1284 324.151 1284.87 324.151 1286.04Z" fill="white"/>
<path d="M341.54 1286.04C341.54 1287.2 340.666 1288.08 339.5 1288.08C338.334 1288.08 337.46 1287.2 337.46 1286.04C337.46 1284.87 338.334 1284 339.5 1284C340.569 1284 341.54 1284.87 341.54 1286.04Z" fill="white"/>
<path d="M358.929 1286.04C358.929 1287.2 358.055 1288.08 356.889 1288.08C355.723 1288.08 354.849 1287.2 354.849 1286.04C354.849 1284.87 355.723 1284 356.889 1284C358.055 1284 358.929 1284.87 358.929 1286.04Z" fill="white"/>
<path d="M376.222 1286.04C376.222 1287.2 375.347 1288.08 374.182 1288.08C373.016 1288.08 372.142 1287.2 372.142 1286.04C372.142 1284.87 373.016 1284 374.182 1284C375.347 1284 376.222 1284.87 376.222 1286.04Z" fill="white"/>
<path d="M393.611 1286.04C393.611 1287.2 392.737 1288.08 391.571 1288.08C390.405 1288.08 389.531 1287.2 389.531 1286.04C389.531 1284.87 390.405 1284 391.571 1284C392.737 1284 393.611 1284.87 393.611 1286.04Z" fill="white"/>
<path d="M411 1286.04C411 1287.2 410.126 1288.08 408.96 1288.08C407.794 1288.08 406.92 1287.2 406.92 1286.04C406.92 1284.87 407.794 1284 408.96 1284C410.029 1284 411 1284.87 411 1286.04Z" fill="white"/>
<path d="M272.08 1300.5C272.08 1301.66 271.206 1302.53 270.04 1302.53C268.874 1302.53 268 1301.56 268 1300.5C268 1299.33 268.874 1298.46 270.04 1298.46C271.206 1298.46 272.08 1299.33 272.08 1300.5Z" fill="white"/>
<path d="M289.469 1300.5C289.469 1301.66 288.595 1302.53 287.429 1302.53C286.263 1302.53 285.389 1301.66 285.389 1300.5C285.389 1299.33 286.263 1298.46 287.429 1298.46C288.498 1298.46 289.469 1299.33 289.469 1300.5Z" fill="white"/>
<path d="M306.762 1300.5C306.762 1301.66 305.887 1302.53 304.722 1302.53C303.556 1302.53 302.682 1301.66 302.682 1300.5C302.682 1299.33 303.556 1298.46 304.722 1298.46C305.887 1298.46 306.762 1299.33 306.762 1300.5Z" fill="white"/>
<path d="M324.151 1300.5C324.151 1301.66 323.277 1302.53 322.111 1302.53C320.945 1302.53 320.071 1301.66 320.071 1300.5C320.071 1299.33 320.945 1298.46 322.111 1298.46C323.277 1298.46 324.151 1299.33 324.151 1300.5Z" fill="white"/>
<path d="M341.54 1300.5C341.54 1301.66 340.666 1302.53 339.5 1302.53C338.334 1302.53 337.46 1301.66 337.46 1300.5C337.46 1299.33 338.334 1298.46 339.5 1298.46C340.569 1298.46 341.54 1299.33 341.54 1300.5Z" fill="white"/>
<path d="M358.929 1300.5C358.929 1301.66 358.055 1302.53 356.889 1302.53C355.723 1302.53 354.849 1301.66 354.849 1300.5C354.849 1299.33 355.723 1298.46 356.889 1298.46C358.055 1298.46 358.929 1299.33 358.929 1300.5Z" fill="white"/>
<path d="M376.222 1300.5C376.222 1301.66 375.347 1302.53 374.182 1302.53C373.016 1302.53 372.142 1301.66 372.142 1300.5C372.142 1299.33 373.016 1298.46 374.182 1298.46C375.347 1298.46 376.222 1299.33 376.222 1300.5Z" fill="white"/>
<path d="M393.611 1300.5C393.611 1301.66 392.737 1302.53 391.571 1302.53C390.405 1302.53 389.531 1301.66 389.531 1300.5C389.531 1299.33 390.405 1298.46 391.571 1298.46C392.737 1298.46 393.611 1299.33 393.611 1300.5Z" fill="white"/>
<path d="M411 1300.5C411 1301.66 410.126 1302.53 408.96 1302.53C407.794 1302.53 406.92 1301.66 406.92 1300.5C406.92 1299.33 407.794 1298.46 408.96 1298.46C410.029 1298.46 411 1299.33 411 1300.5Z" fill="white"/>
<path d="M272.08 1343.68C272.08 1344.84 271.206 1345.72 270.04 1345.72C268.874 1345.72 268 1344.84 268 1343.68C268 1342.52 268.874 1341.64 270.04 1341.64C271.206 1341.64 272.08 1342.61 272.08 1343.68Z" fill="white"/>
<path d="M289.469 1343.68C289.469 1344.84 288.595 1345.72 287.429 1345.72C286.263 1345.72 285.389 1344.84 285.389 1343.68C285.389 1342.52 286.263 1341.64 287.429 1341.64C288.498 1341.64 289.469 1342.61 289.469 1343.68Z" fill="white"/>
<path d="M306.762 1343.68C306.762 1344.84 305.887 1345.72 304.722 1345.72C303.556 1345.72 302.682 1344.84 302.682 1343.68C302.682 1342.52 303.556 1341.64 304.722 1341.64C305.887 1341.64 306.762 1342.61 306.762 1343.68Z" fill="white"/>
<path d="M324.151 1343.68C324.151 1344.84 323.277 1345.72 322.111 1345.72C320.945 1345.72 320.071 1344.84 320.071 1343.68C320.071 1342.52 320.945 1341.64 322.111 1341.64C323.277 1341.64 324.151 1342.61 324.151 1343.68Z" fill="white"/>
<path d="M341.54 1343.68C341.54 1344.84 340.666 1345.72 339.5 1345.72C338.334 1345.72 337.46 1344.84 337.46 1343.68C337.46 1342.52 338.334 1341.64 339.5 1341.64C340.569 1341.64 341.54 1342.61 341.54 1343.68Z" fill="white"/>
<path d="M358.929 1343.68C358.929 1344.84 358.055 1345.72 356.889 1345.72C355.723 1345.72 354.849 1344.84 354.849 1343.68C354.849 1342.52 355.723 1341.64 356.889 1341.64C358.055 1341.64 358.929 1342.61 358.929 1343.68Z" fill="white"/>
<path d="M376.222 1343.68C376.222 1344.84 375.347 1345.72 374.182 1345.72C373.016 1345.72 372.142 1344.84 372.142 1343.68C372.142 1342.52 373.016 1341.64 374.182 1341.64C375.347 1341.64 376.222 1342.61 376.222 1343.68Z" fill="white"/>
<path d="M393.611 1343.68C393.611 1344.84 392.737 1345.72 391.571 1345.72C390.405 1345.72 389.531 1344.84 389.531 1343.68C389.531 1342.52 390.405 1341.64 391.571 1341.64C392.737 1341.64 393.611 1342.61 393.611 1343.68Z" fill="white"/>
<path d="M411 1343.68C411 1344.84 410.126 1345.72 408.96 1345.72C407.794 1345.72 406.92 1344.84 406.92 1343.68C406.92 1342.52 407.794 1341.64 408.96 1341.64C410.029 1341.64 411 1342.61 411 1343.68Z" fill="white"/>
<path d="M272.08 1358.14C272.08 1359.3 271.206 1360.18 270.04 1360.18C268.874 1360.18 268 1359.3 268 1358.14C268 1356.97 268.874 1356.1 270.04 1356.1C271.206 1356.1 272.08 1356.97 272.08 1358.14Z" fill="white"/>
<path d="M289.469 1358.14C289.469 1359.3 288.595 1360.18 287.429 1360.18C286.263 1360.18 285.389 1359.3 285.389 1358.14C285.389 1356.97 286.263 1356.1 287.429 1356.1C288.498 1356.1 289.469 1356.97 289.469 1358.14Z" fill="white"/>
<path d="M306.762 1358.14C306.762 1359.3 305.887 1360.18 304.722 1360.18C303.556 1360.18 302.682 1359.3 302.682 1358.14C302.682 1356.97 303.556 1356.1 304.722 1356.1C305.887 1356.1 306.762 1356.97 306.762 1358.14Z" fill="white"/>
<path d="M322.111 1360.18C323.238 1360.18 324.151 1359.26 324.151 1358.14C324.151 1357.01 323.238 1356.1 322.111 1356.1C320.984 1356.1 320.071 1357.01 320.071 1358.14C320.071 1359.26 320.984 1360.18 322.111 1360.18Z" fill="white"/>
<path d="M341.54 1358.14C341.54 1359.3 340.666 1360.18 339.5 1360.18C338.334 1360.18 337.46 1359.3 337.46 1358.14C337.46 1356.97 338.334 1356.1 339.5 1356.1C340.569 1356.1 341.54 1356.97 341.54 1358.14Z" fill="white"/>
<path d="M358.929 1358.14C358.929 1359.3 358.055 1360.18 356.889 1360.18C355.723 1360.18 354.849 1359.3 354.849 1358.14C354.849 1356.97 355.723 1356.1 356.889 1356.1C358.055 1356.1 358.929 1356.97 358.929 1358.14Z" fill="white"/>
<path d="M376.222 1358.14C376.222 1359.3 375.347 1360.18 374.182 1360.18C373.016 1360.18 372.142 1359.3 372.142 1358.14C372.142 1356.97 373.016 1356.1 374.182 1356.1C375.347 1356.1 376.222 1356.97 376.222 1358.14Z" fill="white"/>
<path d="M391.571 1360.18C392.698 1360.18 393.611 1359.26 393.611 1358.14C393.611 1357.01 392.698 1356.1 391.571 1356.1C390.444 1356.1 389.531 1357.01 389.531 1358.14C389.531 1359.26 390.444 1360.18 391.571 1360.18Z" fill="white"/>
<path d="M411 1358.14C411 1359.3 410.126 1360.18 408.96 1360.18C407.794 1360.18 406.92 1359.3 406.92 1358.14C406.92 1356.97 407.794 1356.1 408.96 1356.1C410.029 1356.1 411 1356.97 411 1358.14Z" fill="white"/>
<path d="M272.08 1372.6C272.08 1373.76 271.206 1374.64 270.04 1374.64C268.874 1374.64 268 1373.76 268 1372.6C268 1371.44 268.874 1370.56 270.04 1370.56C271.206 1370.56 272.08 1371.44 272.08 1372.6Z" fill="white"/>
<path d="M289.469 1372.6C289.469 1373.76 288.595 1374.64 287.429 1374.64C286.263 1374.64 285.389 1373.76 285.389 1372.6C285.389 1371.44 286.263 1370.56 287.429 1370.56C288.498 1370.56 289.469 1371.44 289.469 1372.6Z" fill="white"/>
<path d="M306.762 1372.6C306.762 1373.76 305.887 1374.64 304.722 1374.64C303.556 1374.64 302.682 1373.76 302.682 1372.6C302.682 1371.44 303.556 1370.56 304.722 1370.56C305.887 1370.56 306.762 1371.44 306.762 1372.6Z" fill="white"/>
<path d="M324.151 1372.6C324.151 1373.76 323.277 1374.64 322.111 1374.64C320.945 1374.64 320.071 1373.76 320.071 1372.6C320.071 1371.44 320.945 1370.56 322.111 1370.56C323.277 1370.56 324.151 1371.44 324.151 1372.6Z" fill="white"/>
<path d="M341.54 1372.6C341.54 1373.76 340.666 1374.64 339.5 1374.64C338.334 1374.64 337.46 1373.76 337.46 1372.6C337.46 1371.44 338.334 1370.56 339.5 1370.56C340.569 1370.56 341.54 1371.44 341.54 1372.6Z" fill="white"/>
<path d="M358.929 1372.6C358.929 1373.76 358.055 1374.64 356.889 1374.64C355.723 1374.64 354.849 1373.76 354.849 1372.6C354.849 1371.44 355.723 1370.56 356.889 1370.56C358.055 1370.56 358.929 1371.44 358.929 1372.6Z" fill="white"/>
<path d="M376.222 1372.6C376.222 1373.76 375.347 1374.64 374.182 1374.64C373.016 1374.64 372.142 1373.76 372.142 1372.6C372.142 1371.44 373.016 1370.56 374.182 1370.56C375.347 1370.56 376.222 1371.44 376.222 1372.6Z" fill="white"/>
<path d="M393.611 1372.6C393.611 1373.76 392.737 1374.64 391.571 1374.64C390.405 1374.64 389.531 1373.76 389.531 1372.6C389.531 1371.44 390.405 1370.56 391.571 1370.56C392.737 1370.56 393.611 1371.44 393.611 1372.6Z" fill="white"/>
<path d="M411 1372.6C411 1373.76 410.126 1374.64 408.96 1374.64C407.794 1374.64 406.92 1373.76 406.92 1372.6C406.92 1371.44 407.794 1370.56 408.96 1370.56C410.029 1370.56 411 1371.44 411 1372.6Z" fill="white"/>
<path d="M272.08 1386.96C272.08 1388.13 271.206 1389 270.04 1389C268.874 1389 268 1388.13 268 1386.96C268 1385.8 268.874 1384.92 270.04 1384.92C271.206 1384.92 272.08 1385.89 272.08 1386.96Z" fill="white"/>
<path d="M289.469 1386.96C289.469 1388.13 288.595 1389 287.429 1389C286.263 1389 285.389 1388.13 285.389 1386.96C285.389 1385.8 286.263 1384.92 287.429 1384.92C288.498 1384.92 289.469 1385.89 289.469 1386.96Z" fill="white"/>
<path d="M306.762 1386.96C306.762 1388.13 305.887 1389 304.722 1389C303.556 1389 302.682 1388.13 302.682 1386.96C302.682 1385.8 303.556 1384.92 304.722 1384.92C305.887 1384.92 306.762 1385.89 306.762 1386.96Z" fill="white"/>
<path d="M324.151 1386.96C324.151 1388.13 323.277 1389 322.111 1389C320.945 1389 320.071 1388.13 320.071 1386.96C320.071 1385.8 320.945 1384.92 322.111 1384.92C323.277 1384.92 324.151 1385.89 324.151 1386.96Z" fill="white"/>
<path d="M341.54 1386.96C341.54 1388.13 340.666 1389 339.5 1389C338.334 1389 337.46 1388.13 337.46 1386.96C337.46 1385.8 338.334 1384.92 339.5 1384.92C340.569 1384.92 341.54 1385.89 341.54 1386.96Z" fill="white"/>
<path d="M358.929 1386.96C358.929 1388.13 358.055 1389 356.889 1389C355.723 1389 354.849 1388.13 354.849 1386.96C354.849 1385.8 355.723 1384.92 356.889 1384.92C358.055 1384.92 358.929 1385.89 358.929 1386.96Z" fill="white"/>
<path d="M376.222 1386.96C376.222 1388.13 375.347 1389 374.182 1389C373.016 1389 372.142 1388.13 372.142 1386.96C372.142 1385.8 373.016 1384.92 374.182 1384.92C375.347 1384.92 376.222 1385.89 376.222 1386.96Z" fill="white"/>
<path d="M393.611 1386.96C393.611 1388.13 392.737 1389 391.571 1389C390.405 1389 389.531 1388.13 389.531 1386.96C389.531 1385.8 390.405 1384.92 391.571 1384.92C392.737 1384.92 393.611 1385.89 393.611 1386.96Z" fill="white"/>
<path d="M411 1386.96C411 1388.13 410.126 1389 408.96 1389C407.794 1389 406.92 1388.13 406.92 1386.96C406.92 1385.8 407.794 1384.92 408.96 1384.92C410.029 1384.92 411 1385.89 411 1386.96Z" fill="white"/>
</g>
<g opacity="0.6">
<path d="M1173.73 907.89C1184.33 907.89 1192.96 899.165 1192.96 888.453C1192.96 877.742 1184.33 869.017 1173.73 869.017L1173.73 907.89Z" fill="white"/>
<path d="M1143.73 907.89C1154.33 907.89 1162.96 899.165 1162.96 888.453C1162.96 877.742 1154.33 869.017 1143.73 869.017L1143.73 907.89Z" fill="white"/>
<path d="M1113.73 907.89C1124.33 907.89 1132.96 899.165 1132.96 888.453C1132.96 877.742 1124.33 869.017 1113.73 869.017L1113.73 907.89Z" fill="white"/>
</g>
<g opacity="0.6" clip-path="url(#clip2_2503_327)">
<path d="M72.5498 766C32.4434 766 0 798.443 0 838.55C0 878.557 32.4434 911.1 72.5498 911.1C112.557 911.1 145.1 878.656 145.1 838.55C145 798.443 112.557 766 72.5498 766ZM72.5498 906.422C35.0309 906.422 4.67742 876.069 4.67742 838.55C4.67742 801.031 35.0309 770.677 72.5498 770.677C110.069 770.677 140.422 801.031 140.422 838.55C140.422 875.969 109.969 906.422 72.5498 906.422Z" fill="white"/>
<path d="M72.5498 781.625C41.2011 781.625 15.7241 807.102 15.7241 838.451C15.7241 869.799 41.2011 895.276 72.5498 895.276C103.898 895.276 129.375 869.899 129.375 838.55C129.375 807.102 103.898 781.625 72.5498 781.625ZM72.5498 886.618C45.9781 886.618 24.3823 865.022 24.3823 838.451C24.3823 811.879 45.9781 790.283 72.5498 790.283C99.1215 790.283 120.717 811.879 120.717 838.451C120.717 865.022 99.1215 886.618 72.5498 886.618Z" fill="white"/>
<path d="M72.5503 806.604C54.9353 806.604 40.6045 820.934 40.6045 838.549C40.6045 856.164 54.8358 870.495 72.5503 870.495C90.1652 870.495 104.496 856.164 104.496 838.549C104.397 820.934 90.1652 806.604 72.5503 806.604ZM72.5503 855.667C63.0959 855.667 55.4329 848.004 55.4329 838.549C55.4329 829.095 63.0959 821.432 72.5503 821.432C82.0046 821.432 89.6676 829.095 89.6676 838.549C89.6676 848.004 82.0046 855.667 72.5503 855.667Z" fill="white"/>
</g>
<g opacity="0.6">
<path d="M1831.3 464.921L1831.3 453L1863 453L1863 484.699L1851.17 484.699L1851.17 464.921L1831.3 464.921Z" fill="white"/>
<path d="M1809.9 486.326L1809.9 474.495L1841.6 474.495L1841.6 506.104L1829.68 506.104L1829.68 486.326L1809.9 486.326Z" fill="white"/>
<path d="M1788.49 507.818L1788.49 495.897L1820.1 495.897L1820.1 527.596L1808.27 527.596L1808.27 507.818L1788.49 507.818Z" fill="white"/>
<path d="M1767 529.222L1767 517.301L1798.7 517.301L1798.7 549L1786.78 549L1786.78 529.222L1767 529.222Z" fill="white"/>
</g>
<path opacity="0.6" d="M170 33.9782C160.638 43.3406 145.384 43.3406 136.022 33.9782C126.659 24.6158 126.659 9.36241 136.022 0L170 33.9782Z" fill="white"/>
<g opacity="0.6">
<path d="M78.8243 1950.72L90 1950.72L90 1921L60.2827 1921L60.2827 1932.09L78.8243 1932.09L78.8243 1950.72Z" fill="white"/>
<path d="M58.7598 1970.78L69.8509 1970.78L69.8509 1941.06L40.2183 1941.06L40.2183 1952.24L58.7598 1952.24L58.7598 1970.78Z" fill="white"/>
<path d="M38.606 1990.85L49.7818 1990.85L49.7818 1961.22L20.0645 1961.22L20.0645 1972.31L38.606 1972.31L38.606 1990.85Z" fill="white"/>
<path d="M18.5416 2011L29.7173 2011L29.7173 1981.28L0 1981.28L-5.86103e-07 1992.46L18.5416 1992.46L18.5416 2011Z" fill="white"/>
</g>
<defs>
<clipPath id="clip0_2503_327">
<rect width="258" height="258" fill="white" transform="translate(1713 1324)"/>
</clipPath>
<clipPath id="clip1_2503_327">
<rect width="143" height="105" fill="white" transform="translate(268 1284)"/>
</clipPath>
<clipPath id="clip2_2503_327">
<rect width="145" height="145" fill="white" transform="translate(0 766)"/>
</clipPath>
</defs>
</svg>
